<svg width="1744" height="1719" viewBox="0 0 1744 1719" fill="none" xmlns="http://www.w3.org/2000/svg">
<path d="M1084.91 1072.72C985.844 1369.63 721.203 1461.32 581.271 1092.54C562.028 1041.83 612.342 1022.95 647.529 1000.63C671.631 985.348 684.292 972.093 682.824 958.426C675.896 893.951 645.903 714.572 645.903 714.572L642.852 708.793C642.852 708.793 643.583 707.173 640.712 710.038C637.72 713.025 630.819 744.214 603.622 744.214C579.238 744.214 554.483 733.314 542.636 657.886C538.349 630.589 540.782 559.025 570.989 546.102C583.472 540.763 594.988 538.854 606.222 545.263C617.456 551.671 593.26 523.357 718.209 419.232C799.427 351.549 927.717 341.629 979.484 353.057C1031.25 364.484 1083.02 389.824 1105.91 443.483C1133.69 508.593 1080.03 557.759 1091.82 706.042C1089.67 759.617 1092.74 877.198 945.314 916.607C917.313 924.093 926 965 968 975C1035 996 1084.96 1047.27 1084.96 1072.86" fill="white"/>
<path fill-rule="evenodd" clip-rule="evenodd" d="M1084.94 611.2L1085.1 609.806C1089.24 573.399 1093.26 538.118 1112.24 506.429C1118.7 510.85 1117.95 516.452 1115.93 521.643C1096.01 572.846 1097.84 626.04 1099.67 679.206C1099.83 683.863 1099.99 688.519 1100.14 693.174C1102.22 759.601 1085.65 819.988 1041.35 870.736C1025.98 888.348 1005.63 900.464 984.854 911.045C963.515 921.912 959.03 931.132 965.687 954.599C965.93 955.455 966.229 956.315 966.529 957.178C967.892 961.1 969.273 965.073 965.487 968.95C960.965 973.58 956.026 972.259 950.683 970.83C950.48 970.776 950.277 970.721 950.074 970.667C899.733 957.241 854.697 933.154 813.056 902.393C807.139 898.023 802.272 892.061 797.561 886.29L797.561 886.29L797.256 885.916C794.776 882.879 794.338 878.141 797.807 875.462C801.054 872.955 803.609 875.011 806.452 877.298C806.815 877.59 807.182 877.886 807.556 878.176C830.027 895.614 854.773 907.063 883.768 909.943C897.176 911.276 910.448 910.784 923.708 910.293H923.708H923.709C931.17 910.017 938.626 909.741 946.101 909.79C956.34 909.857 964.752 905.107 972.761 900.584C973.712 900.047 974.658 899.513 975.601 898.99C1003.45 883.545 1029.88 866.229 1047.84 838.331C1063.92 813.331 1073.67 786.1 1079.4 757.443C1086.65 721.27 1085.99 684.701 1085.32 647.621C1085.11 635.536 1084.89 623.397 1084.94 611.2ZM581.684 535.824C603.577 534.064 615.771 547.033 626.037 562.053C638.664 580.526 645.39 601.465 648.37 623.572C648.87 627.28 649.389 631.223 647.152 634.856C642.737 635.45 642.319 631.946 642.252 629.317C641.696 608.644 632.526 590.61 623.308 573.156C616.73 560.704 607.059 548.64 591.943 545.577C574.71 542.084 558.858 557.566 551.067 577.842C536.636 615.398 539.029 652.36 552.455 688.759C558.33 704.687 565.648 720.913 580.303 732.026C595.142 743.28 613.008 741.295 623.903 726.349C624.526 725.495 625.184 724.649 625.845 723.801L625.845 723.801L625.845 723.801C627.841 721.238 629.853 718.656 630.928 715.749C633.035 710.049 636.256 704.629 642.155 705.423C648.978 706.342 650.271 713.729 650.909 719.499C656.707 771.928 664.758 824.024 672.81 876.126L672.81 876.126C674.808 889.053 676.806 901.981 678.769 914.913C681.369 932.023 684.381 956.598 682.361 967.05C682.219 967.792 682.136 968.523 682.058 969.222C681.749 971.958 681.496 974.21 677.906 974.75C673.034 975.484 670.831 972.66 670.233 968.28C667.913 951.274 667.273 944.747 666.275 918.735C665.308 893.519 660.569 868.665 655.83 843.816L655.83 843.815C654.111 834.8 652.392 825.785 650.853 816.753C645.613 785.996 640.483 754.802 640.022 719.777C639.326 720.808 638.644 721.825 637.974 722.826C630.426 734.096 624.264 743.295 613.48 746.877C595.58 752.827 579.917 748.422 567.371 734.277C553.071 718.155 543.783 699.808 538.558 678.498C530.244 644.587 528.704 611.368 539.487 577.853C544.655 561.774 563.189 533.208 581.684 535.824ZM616.346 663.326C620.717 666.467 624.679 669.316 628.334 657.948C627.158 615.652 613.6 588.654 592.472 587.632C603.747 602.197 614.559 616.413 615.472 636.132C610.742 633.978 607.7 630.59 604.784 627.342C602.753 625.08 600.784 622.886 598.348 621.226C597.31 620.519 596.295 619.736 595.271 618.946C590.544 615.301 585.636 611.516 577.471 614.357C581.301 620.187 586.575 624.302 591.799 628.377C597.832 633.084 603.798 637.738 607.392 644.919C596.777 652.561 592.209 662.62 597.718 674.761C602.497 685.296 609.565 694 623.565 694.635C623.043 688.311 618.868 683.708 614.812 679.235C609.879 673.796 605.121 668.55 607.316 660.635C610.515 659.134 613.516 661.291 616.346 663.326Z" fill="black"/>
<path d="M1493.22 1616.41L184.672 1617.27C184.672 1617.27 257.599 1336.96 277.03 1304.81C296.461 1272.66 374.567 1164.37 373.704 1145.99C372.841 1127.6 375.194 1062.24 388.378 1036.37C401.562 1010.49 443.62 975.082 460.02 972.492C476.42 969.902 531.662 967.313 566.189 958.682C600.716 950.051 632.604 939.396 667.689 939.396C673.389 939.396 667.874 951.882 667.874 951.882C667.874 951.882 669.694 1074.25 832.66 1081.92C954.16 1087.65 994.408 964.299 994.408 964.299C994.408 964.299 967.708 940.546 975.814 939.851C1071.38 931.66 1121.55 953.07 1150.54 958.682C1177.3 963.861 1199.74 963.861 1226.5 982.85C1257.18 1004.62 1273.04 1053.89 1307.36 1129.4C1346.71 1215.96 1501.55 1478.67 1493.2 1616.98" fill="black"/>
<path fill-rule="evenodd" clip-rule="evenodd" d="M1181.5 1619.54C1180.75 1602.57 1180.38 1585.6 1180.01 1568.64C1179.2 1531.46 1178.39 1494.3 1173.6 1457.13C1169.2 1423.05 1164.14 1389.01 1158.6 1355.2C1149.5 1299.6 1137.28 1244.47 1125 1189.45C1120.77 1170.5 1113.52 1152 1105.72 1134.13C1100.03 1121.1 1095.26 1107.72 1090.49 1094.34C1085.03 1079.02 1079.57 1063.7 1072.73 1048.9C1071.53 1046.3 1070.02 1043.94 1068.47 1041.5C1065.57 1036.95 1062.5 1032.15 1060.97 1025.1C1013.51 1118.5 940.555 1166.92 837.756 1167.37C736.585 1167.81 661.724 1121.23 607.25 1037.15C598.629 1044.08 594.707 1054.01 591.134 1063.07L591.133 1063.07C590.686 1064.2 590.245 1065.32 589.8 1066.41C571.2 1112.29 553.75 1158.46 548.329 1208.57C545.194 1237.55 540.735 1266.5 536.283 1295.41C535.697 1299.21 535.112 1303.02 534.529 1306.82C527.608 1352.01 521.584 1397.45 518.257 1443.15C514.029 1501.21 509.533 1559.25 504.857 1618.42C500.169 1619.54 495.78 1619.54 490.296 1619.54H490.295C493.817 1594.82 494.695 1569.62 495.495 1544.71C497.09 1495 502.781 1445.78 508.477 1396.53C510.04 1383.01 511.604 1369.48 513.084 1355.94C516.15 1327.88 520.184 1299.97 524.218 1272.05C528.193 1244.55 532.168 1217.05 535.217 1189.4C540.07 1145.4 557.097 1104.2 575.117 1063.76L575.951 1061.88C586.373 1038.47 596.762 1015.14 613.461 995.343C626.374 980.043 640.972 966.409 658.298 956.282C672.198 948.157 676.744 949.896 681.428 965.3C690.991 996.751 707.704 1023.77 734.709 1042.15C777.467 1071.26 823.764 1084.41 876.029 1069.1C912.465 1058.43 942.596 1039.98 964.292 1008.89C972.692 996.846 980.281 983.956 982.811 968.832C980.923 968.11 979.063 967.423 977.229 966.745L977.228 966.744C972.901 965.144 968.721 963.599 964.659 961.784L964.608 961.761C961.662 960.446 957.884 958.759 959.459 954.344C960.677 950.927 963.577 948.444 967.34 948.966C1000.45 953.533 1031.84 960.742 1053.75 990.108C1074.24 1017.56 1089.22 1047.15 1101.06 1079.33C1103.56 1086.12 1106.08 1092.9 1108.61 1099.68C1121.17 1133.4 1133.72 1167.1 1142.96 1201.91C1146.61 1215.66 1149.36 1229.64 1152.12 1243.62L1152.12 1243.63C1153.29 1249.58 1154.46 1255.53 1155.7 1261.47C1157.36 1269.38 1159.11 1277.29 1160.87 1285.19L1160.87 1285.19C1164.91 1303.36 1168.94 1321.52 1171.77 1339.88C1173.72 1352.5 1175.86 1365.1 1178 1377.7C1184.09 1413.55 1190.18 1449.41 1191.77 1485.91C1192.56 1503.9 1193.87 1521.85 1195.19 1539.81L1195.19 1539.82C1196.3 1554.93 1197.4 1570.04 1198.19 1585.17C1198.63 1593.39 1197.8 1601.68 1196.94 1610.28L1196.94 1610.28C1196.66 1613.09 1196.37 1615.93 1196.13 1618.81C1191.28 1619.44 1186.39 1619.68 1181.5 1619.54ZM996.382 979.035L996.38 979.04L996.379 979.04C988.498 997.51 980.626 1015.96 967.097 1031.39C932.806 1070.53 888.358 1088.42 837.714 1089.86C803.631 1090.83 770.169 1083.81 740.778 1064.92C712.178 1046.53 687.732 1024.19 675.757 990.816C675.325 989.612 674.915 988.378 674.502 987.135C672.565 981.3 670.563 975.27 665.857 971.157C652.669 974.164 649.157 982.416 651.309 994.102C651.66 996.005 651.924 997.937 652.188 999.869C652.734 1003.86 653.279 1007.85 654.593 1011.58C667.098 1047 691.513 1073 722.867 1091.98C747.543 1106.92 774.273 1116.84 803.7 1120.51C864.058 1128.03 920.224 1119.98 970.023 1082.74C1000.34 1060.06 1018.9 1030.09 1023.36 992.27C1025.14 977.255 1016.19 970.32 998.693 973.624H998.697C997.921 975.426 997.151 977.231 996.382 979.035ZM635.171 994.828C655.177 1076.84 712.119 1116.18 788.877 1133.39C827.893 1143.24 864.867 1141.56 902.014 1131.93C943.346 1121.21 979.642 1102.61 1006.76 1068.86C1023.42 1048.13 1035.68 1025.21 1036.12 997.312C1051.11 1005.13 1052.65 1010.45 1042.62 1029.22C1020.12 1071.29 988.168 1105.16 945.975 1127.07C899.558 1151.17 849.628 1157.48 797.396 1149.63C743.232 1141.48 698.656 1115.94 659.656 1079.24C645.619 1066.03 635.03 1049.94 624.466 1033.88C622.214 1030.46 619.964 1027.04 617.682 1023.65C614.965 1019.61 616.771 1016.39 619.392 1013.3C622.903 1009.17 626.431 1005.04 630.103 1000.75C631.759 998.819 633.444 996.849 635.171 994.828Z" fill="white"/>
<path fill-rule="evenodd" clip-rule="evenodd" d="M393.057 1619.54C397.566 1604.14 399.262 1588.18 400.962 1572.2C401.815 1564.18 402.669 1556.15 403.88 1548.17C404.792 1542.16 405.676 1536.15 406.561 1530.14C410.118 1505.96 413.675 1481.79 419.02 1457.83C420.555 1450.95 422.202 1444.09 423.851 1437.23L423.851 1437.22C427.046 1423.92 430.244 1410.61 432.638 1397.08C436.559 1374.03 443.388 1351.57 452.962 1330.24C467.862 1297.7 474.725 1263.5 475.234 1228.18C475.489 1210.52 477.701 1193.1 479.913 1175.69C481.561 1162.72 483.209 1149.75 484.047 1136.68C485.628 1112.02 484.429 1087.63 482.94 1061.1C479.155 1064.15 475.51 1067.14 471.943 1070.07L471.942 1070.07L471.941 1070.07C464.437 1076.22 457.28 1082.09 449.902 1087.67C407.076 1120.06 373.609 1160.87 345.034 1205.73C333.883 1223.23 324.543 1241.82 315.208 1260.4L315.207 1260.4C311.442 1267.89 307.677 1275.39 303.795 1282.81C287.826 1313.32 275.506 1345.22 263.547 1377.05C261.404 1382.75 259.24 1388.46 257.075 1394.16C239.239 1441.17 221.311 1488.42 214.292 1538.58C212.278 1552.96 208.361 1566.77 204.41 1580.71C200.905 1593.07 197.373 1605.53 195.119 1618.56C189.573 1619.54 184.347 1619.54 178 1619.54C178.926 1616.29 179.857 1613.04 180.789 1609.78L180.79 1609.78C189.245 1580.29 197.739 1550.66 202.063 1519.79C204.248 1504.2 208.748 1488.89 213.23 1473.64C214.261 1470.13 215.291 1466.63 216.292 1463.13C220.714 1447.65 226.466 1432.63 232.224 1417.61C237.221 1404.56 242.222 1391.51 246.358 1378.14C251.265 1362.27 257.87 1346.93 264.471 1331.59L264.471 1331.59L264.472 1331.59C266.903 1325.94 269.334 1320.29 271.679 1314.62C288.342 1274.32 309.086 1236.02 330.735 1198.29L331.046 1197.75C338.417 1184.91 346.007 1171.68 357.097 1161.06C365.727 1152.8 366.228 1142.07 366.725 1131.42C366.913 1127.38 367.101 1123.36 367.733 1119.48C368.178 1116.75 368.616 1114.02 369.054 1111.29L369.054 1111.29C374.138 1079.56 379.244 1047.7 395.311 1019.49C412.074 990.059 439.858 973.768 472.39 965.874C495.93 960.129 519.934 956.481 544.118 954.974C554.078 954.359 563.857 951.196 573.662 948.024C578.932 946.319 584.21 944.611 589.527 943.296C594.557 942.052 599.568 940.698 604.58 939.343L604.581 939.343C623.664 934.186 642.758 929.027 662.956 929.906C663.31 929.921 663.666 929.934 664.024 929.946C668.098 930.083 672.267 930.224 672.93 935.392C673.591 940.546 670.064 941.202 666.392 941.884C665.732 942.007 665.068 942.13 664.422 942.281C650.426 945.532 636.449 948.865 622.471 952.197L622.47 952.198L622.469 952.198C596.035 958.501 569.601 964.803 543.048 970.554C531.487 973.058 519.523 973.831 507.606 974.6L507.605 974.6C504.65 974.791 501.698 974.981 498.756 975.198C490.25 975.825 482.128 976.929 475.024 981.548C500.824 997.615 515.996 1019.33 515.565 1050.26C515.31 1068.56 516.053 1086.84 516.796 1105.13V1105.13C517.775 1129.23 518.754 1153.33 517.446 1177.45C515.746 1208.86 512.171 1240.04 507.535 1271.24C504.845 1289.35 502.763 1307.59 500.683 1325.83L500.683 1325.83C498.721 1343.03 496.759 1360.22 494.288 1377.29C491.818 1394.35 490.161 1411.46 488.504 1428.56V1428.56C486.97 1444.4 485.437 1460.22 483.261 1475.99C480.711 1494.48 478.856 1513.06 477.001 1531.63L477.001 1531.64C475.398 1547.7 473.794 1563.76 471.741 1579.76C471.218 1583.84 470.969 1587.96 470.718 1592.11C470.193 1600.78 469.66 1609.59 466.601 1618.56C461.012 1619.51 455.303 1619.55 449.701 1618.68C458.316 1585.07 462.362 1551.11 466.354 1517.59C466.507 1516.31 466.659 1515.03 466.812 1513.75C468.778 1497.27 470.222 1480.71 471.666 1464.15C474.02 1437.16 476.375 1410.15 480.997 1383.41C482.861 1372.63 483.694 1361.75 484.527 1350.87C485.606 1336.77 486.685 1322.67 490.006 1308.79C498.327 1273.99 501.006 1238.18 502.952 1202.74C505.823 1150.51 506.534 1098.03 503.33 1045.72C502.313 1029.13 498.73 1012.28 483.789 998.763C485.365 1003.72 487.142 1008.45 488.87 1013.07L488.871 1013.07C492.547 1022.87 496.007 1032.1 496.853 1041.56C499.305 1068.98 499.514 1096.7 499.038 1124.26C498.482 1156.47 494.955 1188.46 491.427 1220.45C490.208 1231.51 488.988 1242.57 487.891 1253.64C484.301 1289.87 479.17 1325.88 474.041 1361.88L474.041 1361.88C471.755 1377.92 469.469 1393.97 467.32 1410.03C465.377 1424.55 463.876 1439.11 462.376 1453.66C460.568 1471.19 458.762 1488.72 456.185 1506.14C454.553 1517.17 453.563 1528.28 452.574 1539.38C450.926 1557.88 449.278 1576.38 444.665 1594.54C444.358 1595.74 444.012 1596.97 443.66 1598.22L443.659 1598.22C441.746 1605 439.687 1612.3 443.116 1619.54C437.535 1619.67 431.953 1619.34 426.427 1618.55C427.154 1610.72 428.376 1603.23 429.584 1595.84C430.657 1589.27 431.718 1582.77 432.411 1576.17C433.841 1562.55 435.375 1548.94 436.908 1535.33L436.91 1535.31L436.91 1535.31C438.606 1520.27 440.301 1505.22 441.858 1490.15C444.851 1461.19 448.74 1432.31 452.629 1403.44L452.629 1403.44C454.287 1391.12 455.946 1378.81 457.535 1366.49C455.655 1374.59 453.224 1382.57 450.797 1390.54L450.796 1390.54C447.311 1401.98 443.833 1413.39 442.001 1425.12C439.384 1441.86 435.917 1458.43 432.45 1475.01L432.45 1475.01L432.45 1475.01C427.94 1496.57 423.428 1518.14 420.784 1540.1C419.872 1547.67 418.768 1555.22 417.665 1562.76C414.912 1581.58 412.161 1600.39 412.396 1619.54H393.057ZM453.314 1065.23C459.485 1058.77 466.053 1052.73 473.805 1048.24C480.515 1044.36 482.351 1038.27 479.977 1031.88C478.838 1028.82 478.363 1025.43 477.887 1022.04C476.784 1014.18 475.676 1006.28 466.287 1002.26C461.287 1000.11 456.458 1002.02 453.034 1004.55C446.6 1009.3 439.903 1014.58 435.567 1021.13C418.387 1047.08 408.902 1076.3 399.927 1109.44C410.876 1098.48 422.066 1089.86 433.226 1081.26C439.952 1076.08 446.668 1070.9 453.314 1065.23ZM415.703 1025.23C405.871 1048.76 396.042 1072.28 393.664 1098.11C393.416 1111.32 388.091 1120.43 382.268 1129.4C383.564 1123.43 384.784 1117.44 386.003 1111.45C392.815 1078 399.626 1044.55 419.805 1015.35C418.451 1018.65 417.077 1021.94 415.703 1025.23Z" fill="white"/>
<path fill-rule="evenodd" clip-rule="evenodd" d="M1454.45 1474.29C1470.31 1521.31 1478.64 1570.31 1486.14 1619.54C1491.62 1619.54 1496.01 1619.54 1500.7 1618.45C1496.78 1579.14 1488.01 1541.76 1479.26 1504.42L1479.14 1503.89C1475.02 1486.31 1469.27 1469.2 1463.52 1452.08C1461.84 1447.08 1460.16 1442.07 1458.52 1437.06C1445.21 1396.39 1431.6 1355.91 1414.86 1316.5C1406.05 1295.76 1395.23 1276.14 1384.38 1256.46C1379.73 1248.03 1375.42 1239.42 1371.11 1230.8C1361.69 1212 1352.28 1193.19 1339.36 1176.3C1338.02 1174.56 1336.63 1172.81 1335.23 1171.05C1329.39 1163.72 1323.42 1156.21 1320.67 1147.79C1309.39 1113.13 1296.46 1079.1 1283.53 1045.08C1275.99 1025.25 1265.64 1006.51 1250.77 991.195C1230.38 970.188 1202.89 962.605 1175.68 956.166C1152.74 950.736 1129.6 946.154 1106.46 941.572C1093 938.909 1079.55 936.245 1066.13 933.414C1031.98 926.311 996.959 924.297 962.213 927.436C956.721 927.907 952.258 929.165 950.284 937.991C964.831 939.652 979.387 940.042 993.922 940.43C1018.14 941.078 1042.3 941.725 1066.27 948.25C1091.52 955.124 1117.25 960.56 1143.71 966.151C1156.16 968.78 1168.76 971.443 1181.56 974.306C1172.44 984.017 1172.14 993.685 1171.85 1003.27C1171.8 1004.79 1171.75 1006.3 1171.67 1007.81C1170.91 1021.82 1173.07 1035.52 1175.22 1049.16C1176.7 1058.58 1178.18 1067.97 1178.69 1077.41C1181.11 1122.24 1188.29 1166.32 1195.47 1210.38C1195.93 1213.18 1196.39 1215.98 1196.84 1218.78C1200.3 1240.08 1202.83 1261.47 1205.35 1282.87C1207.6 1301.89 1209.85 1320.92 1212.75 1339.87C1217.51 1370.9 1219.22 1402.21 1220.93 1433.54C1222.1 1454.83 1223.27 1476.13 1225.39 1497.36C1227.49 1518.42 1229.01 1539.55 1230.53 1560.68C1231.94 1580.3 1233.35 1599.93 1235.23 1619.54H1246.96C1246.44 1570.4 1242.78 1521.43 1239.13 1472.47C1237.25 1447.34 1235.37 1422.22 1233.92 1397.07C1232.71 1376.19 1229.77 1355.33 1226.83 1334.47C1225.32 1323.74 1223.81 1313.01 1222.53 1302.28C1218.76 1270.58 1213.79 1239.07 1208.81 1207.57C1204.52 1180.41 1200.22 1153.25 1196.71 1125.98C1195.02 1112.84 1192.86 1099.76 1190.71 1086.68C1186.24 1059.54 1181.77 1032.39 1181.42 1004.72C1181.28 993.771 1184.84 984.997 1193.94 977.731C1179.34 1007.82 1185.73 1036.86 1192.1 1065.78C1193.77 1073.36 1195.44 1080.93 1196.73 1088.52C1197.86 1095.18 1199.24 1101.83 1200.63 1108.47C1203.41 1121.85 1206.19 1135.22 1206.93 1148.72C1207.54 1159.86 1209.65 1170.62 1211.75 1181.36C1213.23 1188.9 1214.7 1196.43 1215.65 1204.06C1218.11 1223.81 1221.31 1243.45 1224.51 1263.09C1229.5 1293.71 1234.49 1324.34 1236.68 1355.41C1238.56 1381.9 1243.63 1408.25 1248.67 1434.42C1248.93 1435.73 1249.18 1437.04 1249.43 1438.35C1251.9 1451.17 1252.38 1464.15 1252.85 1476.85C1252.87 1477.54 1252.9 1478.23 1252.92 1478.92C1253.61 1497.4 1255.35 1515.79 1257.09 1534.18C1259.35 1558.14 1261.62 1582.08 1261.55 1606.18C1261.55 1607.63 1261.45 1609.08 1261.34 1610.59C1261.17 1613.02 1260.99 1615.6 1261.19 1618.55C1264.93 1619.34 1268.75 1619.67 1272.57 1619.54C1275.32 1574.3 1272.15 1529.22 1268.15 1481.67C1282.2 1521.53 1289.12 1560.95 1296.15 1601.01C1297.16 1606.8 1298.18 1612.6 1299.23 1618.42C1304.64 1619.48 1310.21 1619.58 1315.66 1618.7C1311.74 1609.85 1311.09 1600.8 1310.45 1591.93C1310.04 1586.32 1309.64 1580.79 1308.43 1575.43C1307.32 1570.55 1306.23 1565.67 1305.14 1560.79C1297.31 1525.76 1289.47 1490.71 1275.13 1457.33C1274.14 1455.04 1273.07 1452.74 1271.98 1450.42C1268.24 1442.39 1264.37 1434.1 1263.7 1425.17C1262.57 1410.23 1259.59 1395.55 1256.63 1380.97C1255.8 1376.86 1254.97 1372.77 1254.18 1368.67C1250.61 1350.14 1248.5 1331.45 1246.38 1312.75C1244.21 1293.58 1242.04 1274.4 1238.3 1255.38C1234.6 1236.59 1231.39 1217.7 1228.17 1198.81C1223.15 1169.27 1218.12 1139.72 1211.24 1110.47C1210.58 1107.7 1209.89 1104.9 1209.19 1102.08C1206.31 1090.46 1203.32 1078.38 1202.49 1065.21C1204.15 1065.86 1205.61 1066.35 1206.9 1066.78C1209.29 1067.57 1211.12 1068.19 1212.56 1069.3L1213.59 1070.09C1244.83 1094.16 1276.17 1118.31 1300.72 1149.56C1322.11 1176.78 1341.24 1205.31 1356.64 1236.81C1362.52 1248.85 1368.64 1260.76 1374.75 1272.67C1387.88 1298.24 1401.01 1323.8 1411.85 1350.64C1423.55 1379.57 1433.16 1409.16 1442.76 1438.73C1446.61 1450.6 1450.46 1462.47 1454.45 1474.29ZM1210.94 1051.52C1204.79 1048.02 1200.54 1043.28 1199.47 1036.08C1194.99 1023.9 1195.09 1013.28 1196.6 1002.71C1198.79 987.44 1209.33 983.105 1223.08 989.605C1243 999.021 1251.73 1017.19 1260.22 1034.89C1261.11 1036.73 1261.99 1038.58 1262.89 1040.41C1271.14 1057.27 1277.89 1074.88 1285.08 1093.64C1288.3 1102.04 1291.61 1110.68 1295.18 1119.59C1291.26 1115.95 1287.43 1112.37 1283.67 1108.84C1264.96 1091.32 1247.83 1075.28 1228.3 1062.12C1222.68 1058.34 1216.83 1054.87 1210.94 1051.52Z" fill="white"/>
<path d="M962.18 390.52C909.339 343.889 849.256 414.199 801.039 440.1C772.624 455.364 741.097 463.34 708.521 467.278C698.181 468.528 687.073 464.825 675.097 463.226C680.826 475.524 674.52 485.614 670.842 495.619C658.551 529.059 652.389 563.305 649.574 598.282C648.773 608.267 648.773 627.796 639.45 629.614C630.921 618.139 628.925 606.246 625.33 594.949C619.52 576.7 607.938 561.775 591.541 549.908C583.712 544.241 574.633 540.411 565.3 547.893C560.714 546.233 557.329 542.71 556.222 538.446C548.565 512.551 542.08 486.799 548.824 459.569C555.436 432.862 560.717 405.937 571.56 380.176C576.861 367.581 586.693 357.834 596.192 347.834C598.935 344.947 602.579 342.55 602.039 338.258C600.166 323.369 603.916 308.785 607.85 294.771C613.431 274.903 626.073 257.854 642.804 243.275C659.085 229.089 678.342 218.956 698.611 210.174C705.403 207.231 708.853 203.236 710.114 196.619C720.669 141.248 790.767 117.138 838.666 134.601C839.061 134.745 839.455 134.896 839.861 135.009C851.665 138.312 885.517 140.756 897.916 137.927C923.683 132.052 946.822 140.667 969.999 147.697C992.351 154.476 1011.6 166.3 1028.03 181.371C1031.69 184.731 1035.65 186.032 1040.57 185.559C1062.4 183.462 1080.43 190.269 1095.63 203.727C1098.77 206.511 1102.12 208.243 1106.84 208.246C1143.15 208.267 1165.39 224.834 1176.06 254.649C1177.64 259.064 1180.99 261.672 1185.51 263.214C1214.1 272.982 1226.41 293.644 1231.85 318.309C1233.09 323.915 1235.9 327.082 1240.69 329.718C1253.7 336.879 1261.68 346.9 1262.88 360.573C1263.25 364.91 1263.68 368.626 1268.86 370.833C1285.66 377.99 1289.06 391.581 1288.18 405.932C1287.64 414.65 1287.6 424.056 1280.77 431.706C1276.45 436.55 1280.31 439.31 1284.73 441.432C1291.61 444.72 1297.1 449.508 1302.33 454.401C1315.67 466.882 1320.34 481.751 1313.62 497.962C1310.82 504.71 1312.46 509.536 1316.29 514.557C1325.67 526.846 1328.67 540.275 1319.28 552.715C1308.83 566.549 1309.14 582.453 1304.79 597.37C1300.18 613.195 1272.62 627.109 1256.18 618.55C1248.12 614.356 1243.82 615.535 1237.8 622.712C1226.57 636.098 1199.79 637.3 1181.77 627.796C1167.8 620.426 1158.05 609.838 1149.71 597.974C1147.63 595.022 1146.49 592.392 1141.24 592.962C1114.89 595.816 1096.97 583.938 1085.29 564.899C1079.77 555.912 1075.98 551.549 1062.68 552.968C1039.27 555.459 1010.99 529.008 1010.07 506.135C1009.66 495.968 1009.72 485.77 1009.97 475.594C1010.18 466.786 1005.67 459.789 997.795 455.659C982.379 447.572 973.934 436.279 970.441 420.817C968.21 410.94 964.334 401.312 962.18 390.52Z" fill="black"/>
<path d="M959.943 830.05C964.83 815.766 964.092 813.809 950.179 811.339C939.993 809.532 930.851 805.044 921.185 801.939C910.299 798.444 903.167 788.145 891.712 785.425C885.704 815.199 925.445 841.928 959.943 830.05Z" fill="white"/>
<path fill-rule="evenodd" clip-rule="evenodd" d="M888.638 825.643C907.09 842.8 929.299 851.148 956.059 846.828C958.275 845.912 960.424 845.083 962.507 844.279C967.252 842.449 971.653 840.751 975.716 838.457C980.859 835.557 985.021 829.328 980.516 824.682C970.585 814.44 975.565 808.533 984.51 802.549C988.406 799.942 990.918 796.304 988.84 791.772C986.109 785.808 980.836 787.975 976.709 789.732C971.869 791.792 966.927 792.308 961.873 792.836C961.043 792.923 960.21 793.01 959.374 793.104C934.616 795.894 914.534 784.198 894.57 772.571C894.39 772.466 894.209 772.36 894.028 772.255C882.224 765.381 875.018 767.697 873.485 781.475C871.617 798.274 876.278 814.149 888.638 825.643ZM950.177 811.343C964.09 813.813 964.828 815.77 959.941 830.054L959.942 830.05C925.444 841.928 885.703 815.199 891.71 785.429C897.774 786.869 902.627 790.433 907.466 793.987C911.768 797.146 916.06 800.298 921.183 801.943C924.465 802.997 927.687 804.211 930.909 805.425C937.178 807.787 943.45 810.15 950.177 811.343Z" fill="black"/>
<path d="M975.184 714.071C980.733 710.163 984.883 704.579 987.024 698.139C989.779 690.272 988.08 681.53 982.579 675.268C977.343 669.236 970.225 671.631 963.531 673.632C959.423 674.859 954.123 678.886 951.363 672.421C948.963 666.788 953.207 662.433 957.425 659.66C965.688 654.23 974.698 653.231 984.212 656.937C996.098 661.568 1000.62 671.413 1002.32 682.737C1008.97 726.966 971.373 737.107 941.585 735.237C939.453 735.001 937.414 734.234 935.654 733.007C932.284 730.775 926.98 729.16 928.454 723.886C930.132 717.886 935.201 718.895 940.091 719.865C952.114 722.249 963.554 720.061 975.184 714.071Z" fill="black"/>
<path d="M825.129 614.635C830.116 602.597 834.019 585.235 849.214 592.12C869.893 601.493 863.072 622.846 858.89 639.481C857.312 645.758 844.37 655.393 840.636 653.837C824.348 647.046 821.371 632.095 825.129 614.635Z" fill="black"/>
<path d="M1051.96 651.426C1043.38 658.882 1034.99 659.026 1029.82 649.926C1020.71 633.887 1021.2 617.101 1033.14 602.686C1035.64 599.675 1046.89 599.056 1049.42 601.744C1063.36 616.605 1063.96 633.46 1051.96 651.426Z" fill="black"/>
<path fill-rule="evenodd" clip-rule="evenodd" d="M936.086 552.28L936.091 552.28C988.115 552.625 1039.33 552.965 1090.54 553.379C1095.22 553.534 1099.88 553.946 1104.51 554.613C1111.63 555.461 1114.91 558.8 1116.49 566.645C1122.72 597.494 1119.29 627.659 1110.22 657.034C1104.76 674.708 1090.23 685.104 1072.67 690.575C1049.74 697.719 1026.22 702.951 1002.87 694.475C982.13 686.945 965.693 674.48 960.014 650.539C959.303 647.544 958.415 644.607 957.53 641.683L957.53 641.683C955.016 633.371 952.533 625.162 954.257 616.009C954.996 612.084 951.195 610.147 948.208 608.625L948.178 608.609C933.188 600.963 918.478 608.418 915.77 625.087C912.8 643.375 906.77 660.896 896.409 675.877C879.865 699.791 854.759 705.261 827.4 702.024C805.853 699.474 787.236 690.436 771.2 675.436C756.85 662.014 749.583 645.894 751.124 626.641C752.024 615.435 745.703 610.341 737.424 608.931C723.108 606.49 709.839 601.084 696.64 595.707L696.64 595.707C691.89 593.772 687.15 591.84 682.373 590.052C675.182 587.361 667.875 585.068 660.573 582.776L660.573 582.776C652.535 580.253 644.505 577.733 636.643 574.686C636.288 574.548 635.935 574.416 635.588 574.286L635.587 574.286C631.77 572.856 628.566 571.655 629.191 565.821C634.893 563.16 640.131 564.868 645.555 566.636C649.145 567.806 652.817 569.003 656.759 568.979C654.074 559.998 648.481 556.606 639.498 556.208C628.724 555.73 619.098 552.031 611.968 543.033C616.742 538.381 620.995 538.713 625.149 539.84C646.516 545.638 668.347 548.926 690.183 552.215C708.177 554.925 726.175 557.636 743.922 561.752C754.208 564.137 765.261 564.18 774.962 555.33C781.178 549.658 790.446 549.846 798.931 550.018C799.981 550.039 801.018 550.06 802.037 550.07C827.29 550.306 852.539 550.861 878.239 551.425L878.239 551.425C888.89 551.659 899.618 551.895 910.456 552.11C919.023 552.167 927.565 552.224 936.086 552.28ZM760.356 617.971C763.719 659.682 787.103 680.956 823.136 688.965C846.709 694.205 875.409 689.103 889.946 662.185C898.129 647.032 902.768 631.045 906.959 614.601C910.83 599.408 921.194 594.555 942.6 596.34C956.894 597.532 963.476 604.184 965.4 618.805C966.843 629.764 968.476 640.705 970.421 651.589C972.877 665.337 989.854 681.913 1003.73 684.698C1025.07 689.112 1047.22 687.481 1067.68 679.99C1079.66 675.651 1090.59 669.619 1096.36 656.996C1106.44 634.947 1109.45 611.71 1109.14 587.78C1108.85 565.859 1107.52 564.38 1084.84 564.29C1070.75 564.234 1056.66 564.251 1042.56 564.267C1023.03 564.29 1003.49 564.313 983.955 564.142C958.981 563.924 934.008 563.604 909.035 563.283L909.035 563.283C879.978 562.909 850.922 562.536 821.864 562.325C818.382 562.3 814.788 561.962 811.177 561.623C800.435 560.615 789.534 559.591 780.937 566.725C771.995 574.143 763.102 574.12 753.534 574.095H753.533C752.385 574.092 751.227 574.089 750.058 574.099C747.558 574.12 745.094 573.606 742.603 573.086C738.399 572.209 734.118 571.316 729.458 572.953C730.779 587.769 734.15 600.719 751.399 604.178C757.747 605.448 761.123 609.009 760.352 617.971H760.356ZM684.546 564.56C693.391 563.411 701.56 562.35 704.44 575.114H704.436C705.954 579.856 707.095 582.843 708.497 586.514L708.515 586.562C695.509 583.793 685.342 578.841 680.387 565.051C681.778 564.92 683.17 564.739 684.546 564.56Z" fill="black"/>
<path d="M896.904 582.754C896.23 576.754 900.032 575.42 903.92 575.408C922.993 575.35 942.073 575.424 961.137 575.922C965.486 575.942 969.579 577.982 972.213 581.442C965.311 589.5 918.639 590.826 896.904 582.754Z" fill="black"/>
<path d="M821.117 537.064C844.669 536.71 866.451 528.101 889.228 531.194C907.362 533.656 925.476 535.251 943.773 532.062C950.407 530.905 955.354 534.037 956.862 544.187C958.3 530.568 970.205 531.305 973.937 532.887C989.423 539.465 1004.14 533.987 1018.8 532.427C1038.73 530.306 1067.27 542.978 1077.06 560.766C1078.39 562.929 1079.88 564.99 1081.52 566.934C1084.3 570.572 1088.77 574.105 1084.43 579.047C1080.38 583.647 1075.3 580.747 1071.52 578.666C1063.01 573.991 1054.8 568.792 1046.94 563.099C1040.74 558.612 1034.8 557.78 1027.84 560.735C1015.37 566.035 1002.5 566.543 989.032 565.142C974.632 563.642 959.514 568.542 945.97 567.033C924.526 564.633 902.785 570.505 881.846 563.625C873.391 560.847 865.082 556.714 856.677 563.757C855.8 564.492 853.967 565.096 853.096 564.678C840.761 558.767 828.745 564.742 816.681 564.802C806.499 564.853 796.544 567.802 786.433 566.409C782.554 565.874 777.233 568.409 775.406 562.779C773.384 556.553 779.385 554.629 782.856 552.479C791.412 547.179 800.037 541.723 810.725 541.119C813.902 540.941 816.958 538.689 821.117 537.064Z" fill="black"/>
</svg>
